<?xml version="1.0" encoding="utf-8"?>
<!-- Generator: Adobe Illustrator 23.0.5, SVG Export Plug-In . SVG Version: 6.00 Build 0)  -->
<svg version="1.1" id="Warstwa_1" xmlns="http://www.w3.org/2000/svg" xmlns:xlink="http://www.w3.org/1999/xlink" x="0px" y="0px"
	 viewBox="0 0 949.5 664.88" style="enable-background:new 0 0 949.5 664.88;" xml:space="preserve">
<style type="text/css">
	.st0{fill-rule:evenodd;clip-rule:evenodd;fill:#2389AB;}
	.st1{fill:#FBF066;}
	.st2{fill:#0C4458;}
	.st3{fill:#B2D575;}
	.st4{fill:#F27685;}
	.st5{fill:#6DCDE6;}
</style>
<path class="st0" d="M130.25,18.71c0-3.39,0.97-6.06,2.83-8c1.86-1.94,4.04-2.99,6.63-3.15h232.36c3.72,0,6.55,1.05,8.41,3.15
	c1.86,2.1,2.75,4.93,2.75,8.49v60.15c0,2.75-0.97,5.33-2.91,7.84c-1.94,2.51-4.77,3.8-8.49,3.8H224.36v75.19h108.9
	c3.07,0,5.66,0.89,7.76,2.59c2.1,1.7,3.15,4.37,3.15,8.09v58.21c0,2.75-0.89,5.34-2.75,7.84c-1.86,2.51-4.45,3.8-7.68,3.8H224.36
	v110.84c0,6.95-3.72,10.43-11.16,10.43l-71.82,50.53l-2.39-50.53c-5.82-0.81-8.73-4.2-8.73-10.19V18.71z"/>
<path class="st0" d="M554.28,18.22c0-3.23,1.13-5.82,3.31-7.76c2.18-1.94,4.85-2.91,8.09-2.91H826.9c2.91,0,5.5,0.89,7.76,2.67
	c2.26,1.78,3.56,4.45,3.88,8v60.39c0,2.91-0.97,5.66-2.99,8.33c-2.02,2.67-4.93,4.04-8.65,4.04h-83.68v265.59
	c0,2.91-1.05,5.49-3.15,7.84c-2.1,2.34-4.85,3.56-8.24,3.56l-6.57,50.53l-59.5,29.06l-5.24-79.58c-2.75,0-5.34-1.13-7.76-3.32
	c-2.43-2.18-3.64-4.85-3.64-8.08V90.99h-83.43c-3.23,0-5.9-1.05-8.09-3.15c-2.18-2.1-3.31-5.18-3.31-9.22V18.22z"/>
<path class="st0" d="M439.42,20.6L439.42,20.6c-20.25,19.52-35.01,57.1-35.09,89.37c-0.39,32.75,17.56,64.17,43.62,76.46l3.16,1.49
	l-7.08,163.83l-1.53,56.63c0,1.7,20.1-19.52,21.38-18.38c1.28,1.15,23.67-18.85,23.67-18.85c1.78,0,3.23-0.64,4.34-1.87
	c1.11-1.23,1.66-2.6,1.66-4.13v-0.14l-6.1-177l3.17-1.47c6.54-3.03,12.69-7.29,18.26-12.67c16.3-15.72,25.96-39.45,25.82-63.48
	c0.13-40.75-25.73-103.04-65.01-104.18C459.33,6.47,449.06,11.3,439.42,20.6z M442.13,34.54L442.13,34.54
	c-5.88,5.67-11.26,13-15.86,21.31c3.53-4.31,7.33-8.19,11.33-11.5c10.3-8.52,21.26-12.96,32.32-13.19
	c17.06,0.43,31.75,10.13,43.16,24.01c-10.41-18.92-25.28-33.3-43.19-33.82C460.4,21.58,450.97,26.02,442.13,34.54z M437.6,44.35"/>
<g>
	<path class="st1" d="M91.62,648.77c-17.94,0-30.29-5.02-36.72-14.91l-0.12-0.18l-0.11-0.19c-3.35-5.66-5.53-10.75-6.64-15.58
		c-0.97-4.19-1.83-10.14-2.62-18.2L16.53,305.84c-0.79-8.05-1.11-14.05-0.97-18.36c0.16-4.95,1.3-10.37,3.49-16.57l0.07-0.2
		l0.08-0.2c5.34-13.36,20.28-21.06,45.69-23.56c4.07-0.4,7.95-0.6,11.53-0.6c12.65,0,22.33,2.43,29.59,7.44
		c8.47,5.72,13.65,15.01,15.4,27.63c0.68,3.34,1.31,8.07,1.93,14.43l12.95,131.8c2.5-2.93,5.2-6.13,8.1-9.61
		c11.05-13.28,19.19-22.54,24.87-28.3l0.39-0.4l5.66-4.63c12.32-11.54,23.46-17.65,34.04-18.69c0.84-0.08,1.7-0.12,2.56-0.12
		c10.94,0,22.76,6.65,36.14,20.33c13.97,14.3,20.95,25.71,21.95,35.9c1.07,10.88-4.98,22.87-18.5,36.66l-35.76,36.93l60.16,40.55
		c10.12,6.94,16.33,12.23,19.59,16.68c3.6,4.94,5.68,10.04,6.19,15.17c1.01,10.28-3.43,23.33-13.57,39.89l-0.19,0.3
		c-11.72,17.78-23.22,27-35.16,28.17c-0.91,0.09-1.85,0.13-2.8,0.13c-9.11,0-20.5-4.19-34.84-12.8l-5.48-3.08l-0.34-0.23
		c-8.43-5.67-21.12-15.4-38.8-29.77c-7.34-5.96-13.93-11.18-19.72-15.63l1.44,14.63c0.79,8.06,1.11,14.06,0.97,18.36
		c-0.16,5.09-1.51,10.66-4.13,17.02c-5.06,13-19.87,20.53-45.25,23.02C99.48,648.56,95.38,648.77,91.62,648.77z"/>
	<path class="st2" d="M76.42,256.84c10.39,0,18.28,1.87,23.68,5.62c6.01,4.04,9.66,10.94,10.95,20.72
		c0.61,2.91,1.23,7.48,1.84,13.69l15.28,155.53c5.41-5.48,13.49-14.7,24.28-27.65c10.78-12.95,18.88-22.16,24.28-27.65l5.5-4.5
		c10.58-9.96,19.96-15.34,28.14-16.14c0.5-0.05,1.02-0.07,1.54-0.07c7.89,0,17.43,5.72,28.63,17.17
		c11.93,12.2,18.27,22.07,19.01,29.59c0.74,7.53-4.45,16.95-15.55,28.28l-44.52,45.99l70.56,47.56c8.85,6.07,14.51,10.8,17,14.18
		c2.48,3.39,3.88,6.72,4.2,9.99c0.77,7.85-3.26,18.98-12.08,33.39c-9.77,14.83-18.91,22.66-27.41,23.5
		c-0.57,0.06-1.16,0.08-1.77,0.08c-7.1,0-16.95-3.79-29.56-11.37l-5.24-2.95c-8.14-5.47-20.81-15.21-38.04-29.21
		c-17.23-13.99-30.25-23.86-39.07-29.6l3.71,37.78c0.74,7.53,1.05,13.19,0.93,17c-0.12,3.81-1.25,8.3-3.38,13.46
		c-3.42,8.93-15.6,14.41-36.53,16.47c-4.01,0.39-7.73,0.59-11.17,0.59c-14.22,0-23.53-3.38-27.91-10.13
		c-2.77-4.68-4.59-8.88-5.45-12.59c-0.86-3.71-1.66-9.33-2.4-16.85L26.98,304.81c-0.74-7.52-1.05-13.19-0.93-17
		c0.12-3.8,1.08-8.28,2.89-13.41c3.71-9.28,16.03-14.95,36.97-17.01C69.66,257.02,73.16,256.84,76.42,256.84 M76.42,235.84
		C76.42,235.84,76.42,235.84,76.42,235.84c-3.92,0-8.15,0.22-12.56,0.65c-12.93,1.27-23.29,3.76-31.67,7.62
		c-13.93,6.41-20.06,15.77-22.75,22.5l-0.16,0.4l-0.14,0.41c-2.55,7.23-3.89,13.68-4.08,19.73c-0.15,4.77,0.18,11.22,1.02,19.72
		l28.87,293.89c0.84,8.51,1.77,14.91,2.84,19.54c1.36,5.88,3.93,11.95,7.84,18.56l0.22,0.37l0.23,0.36
		c8.49,13.06,23.8,19.69,45.52,19.69c4.1,0,8.55-0.23,13.22-0.69c12.87-1.26,23.15-3.69,31.41-7.41
		c13.86-6.25,19.92-15.43,22.56-22.14c3.08-7.51,4.68-14.26,4.88-20.61c0.09-2.72,0.02-5.99-0.22-9.89
		c0.14,0.11,0.28,0.23,0.42,0.34c17.93,14.56,30.87,24.49,39.56,30.33l0.69,0.46l0.72,0.41l4.99,2.81
		c16.17,9.7,28.93,14.22,40.11,14.22c1.29,0,2.58-0.06,3.82-0.18c15.29-1.5,29.32-12.25,42.9-32.84l0.19-0.29l0.18-0.3
		c11.54-18.85,16.32-33.59,15.07-46.4c-0.69-7.03-3.43-13.86-8.14-20.32l-0.02-0.02l-0.02-0.02c-4.04-5.51-10.84-11.39-22.05-19.08
		l-0.07-0.05l-0.07-0.05L231.99,494l27.04-27.93c15.79-16.12,22.79-30.84,21.4-44.98c-1.25-12.7-9.16-26.12-24.89-42.21
		c-15.46-15.81-29.74-23.5-43.65-23.5c-1.2,0-2.41,0.06-3.59,0.18c-12.88,1.27-25.95,8.21-39.92,21.23l-4.96,4.06l-0.87,0.71
		l-0.79,0.8c-4.4,4.46-10.16,10.87-17.47,19.46l-10.51-107.01c-0.64-6.51-1.3-11.49-2.03-15.16c-2.76-19.28-12.25-29.41-19.83-34.54
		C102.87,238.87,91.25,235.84,76.42,235.84L76.42,235.84L76.42,235.84z"/>
</g>
<g>
	<path class="st3" d="M354.8,637.14c-1.63,0-3.33-0.03-5.06-0.09c-24.98-0.84-40.09-7.46-46.19-20.26l-0.09-0.19l-0.08-0.19
		c-2.56-5.99-4.03-11.17-4.51-15.86c-0.42-4.11-0.49-10.21-0.21-18.62l5.78-172.95c0.27-8.06,0.74-14.03,1.43-18.26
		c0.8-4.84,2.62-10.01,5.58-15.83l0.13-0.25l0.14-0.25c6.49-11.15,20.49-16.58,42.77-16.58c1.63,0,3.34,0.03,5.06,0.09
		c18.34,0.61,31.28,4.55,39.56,12.04c7.55,6.69,11.41,16.31,11.49,28.61c0.22,3.64,0.22,8.67,0.01,14.97l-5.76,172.45
		c-0.27,8.07-0.74,14.04-1.44,18.27c-0.82,4.97-2.87,10.26-6.26,16.17C390.98,631.67,377.12,637.14,354.8,637.14
		C354.8,637.14,354.8,637.14,354.8,637.14z M365.1,342.51c-1.69,0-3.46-0.03-5.26-0.09c-11.49-0.38-20.57-1.81-27.78-4.35
		c-8.79-3.1-15.01-8.5-18.47-16.04c-2.79-6.09-4.38-11.46-4.86-16.42c-0.41-4.26-0.48-10.25-0.21-18.32
		c0.27-8.06,0.74-14.03,1.43-18.26c0.8-4.85,2.71-10.09,5.69-15.57l0.07-0.13c6.5-11.58,20.57-17.2,43.03-17.2
		c1.58,0,3.23,0.03,4.91,0.08c24.98,0.84,39.94,7.48,45.73,20.31c2.97,6.1,4.66,11.49,5.14,16.49c0.41,4.27,0.48,10.26,0.21,18.32
		c-0.27,8.07-0.74,14.04-1.43,18.27c-0.82,4.97-2.78,10.18-6.01,15.93c-3.95,7.06-10.49,11.9-19.42,14.4
		C381.63,341.66,374.19,342.51,365.1,342.51C365.1,342.51,365.1,342.51,365.1,342.51z"/>
	<path class="st2" d="M358.73,246.12c1.48,0,3,0.03,4.57,0.08c20.69,0.69,33.03,5.54,37,14.56c2.46,5.02,3.88,9.42,4.24,13.21
		c0.37,3.8,0.42,9.47,0.17,17.02c-0.25,7.56-0.69,13.22-1.31,16.97c-0.62,3.76-2.24,7.99-4.86,12.66c-2.62,4.68-7.09,7.9-13.39,9.66
		c-5.27,1.47-11.96,2.21-20.05,2.21c-1.59,0-3.23-0.03-4.93-0.09c-10.35-0.35-18.61-1.61-24.78-3.79
		c-6.18-2.18-10.41-5.77-12.71-10.78c-2.3-5.01-3.63-9.41-4-13.21c-0.37-3.79-0.42-9.46-0.17-17.02c0.25-7.55,0.69-13.21,1.31-16.97
		c0.62-3.76,2.15-7.9,4.61-12.42C328.95,250.16,340.38,246.12,358.73,246.12 M354.5,367.82c1.53,0,3.11,0.03,4.73,0.08
		c15.77,0.53,26.84,3.69,33.23,9.5c5.43,4.79,8.15,11.95,8.16,21.48c0.21,3.3,0.22,8.07,0.02,14.31l-5.76,172.45
		c-0.25,7.56-0.69,13.22-1.31,16.97c-0.62,3.76-2.33,8.06-5.12,12.9c-4.21,7.75-15.42,11.62-33.64,11.62c-1.53,0-3.1-0.03-4.73-0.08
		c-20.69-0.69-33.2-5.55-37.5-14.57c-2.14-5-3.39-9.32-3.76-12.95c-0.37-3.63-0.43-9.39-0.16-17.27l5.78-172.95
		c0.25-7.55,0.69-13.21,1.31-16.97c0.62-3.76,2.16-8.07,4.62-12.92C324.88,371.7,336.25,367.82,354.5,367.82 M358.73,226.12
		c-11.56,0-21.04,1.36-28.98,4.16c-10.4,3.67-18.06,9.77-22.76,18.14l-0.07,0.13l-0.07,0.13c-3.56,6.55-5.77,12.67-6.76,18.71
		c-0.77,4.67-1.28,11.06-1.56,19.56c-0.28,8.51-0.2,14.92,0.25,19.62c0.59,6.08,2.46,12.5,5.73,19.62
		c3.19,6.94,9.98,16.27,24.23,21.3c2.02,0.71,4.15,1.35,6.41,1.91c-3.32,0.61-6.42,1.41-9.3,2.39
		c-10.36,3.52-18.01,9.44-22.75,17.58l-0.29,0.49l-0.26,0.51c-3.43,6.74-5.57,12.87-6.53,18.73c-0.77,4.67-1.28,11.06-1.56,19.56
		l-5.78,172.95c-0.3,9-0.22,15.35,0.26,19.98c0.58,5.7,2.3,11.84,5.26,18.77l0.16,0.38l0.18,0.37c3.03,6.35,9.55,15.06,23.41,20.45
		c8.44,3.28,18.74,5.08,31.47,5.51c1.84,0.06,3.65,0.09,5.39,0.09c11.46,0,20.81-1.31,28.61-4c12.82-4.43,19.29-12.08,22.47-17.82
		c3.98-6.94,6.41-13.31,7.42-19.46c0.77-4.65,1.28-11.05,1.56-19.55l5.76-172.45c0.22-6.55,0.22-11.68-0.01-15.64
		c-0.2-18.77-8.12-29.77-14.82-35.72c-5.75-5.19-13.1-8.97-22.19-11.4c2.43-0.42,4.74-0.93,6.93-1.55
		c14.44-4.04,21.82-12.65,25.46-19.15c3.8-6.77,6.14-13.05,7.15-19.19c0.77-4.65,1.28-11.05,1.56-19.55
		c0.28-8.5,0.2-14.91-0.25-19.61c-0.6-6.18-2.58-12.65-6.05-19.79c-2.96-6.47-9.35-15.13-23.02-20.51
		c-8.38-3.3-18.66-5.11-31.42-5.53C362.18,226.15,360.42,226.12,358.73,226.12L358.73,226.12z"/>
</g>
<g>
	<path class="st4" d="M537.38,640.57c-29.57,0-57.65-12.18-83.47-36.21c-27.77-25.82-43.07-57.55-45.48-94.3
		c-2.41-36.74,8.68-70.29,32.99-99.7c24.45-29.59,53.02-45.66,84.93-47.76c2.47-0.16,4.93-0.24,7.31-0.24
		c15.06,0,28.47,3.23,40.1,9.62l-5.33-81.17c-0.53-8.05-0.65-14.04-0.38-18.32c0.32-5.02,1.76-10.39,4.4-16.44
		c3.25-7.43,9.27-12.9,17.91-16.26c7.12-2.77,16.15-4.49,27.62-5.24c3.34-0.22,6.54-0.33,9.51-0.33c7.23,0,13.3,0.63,18.56,1.92
		c9.06,2.22,15.78,6.98,19.97,14.14c3.38,5.78,5.49,10.97,6.46,15.85c0.83,4.2,1.49,10.16,2.02,18.21l19.3,293.69
		c0.53,8.05,0.65,14.04,0.38,18.32c-0.33,5.14-1.9,10.55-4.81,16.54c-6.09,12.81-22.14,19.9-49.06,21.66
		c-2.17,0.14-4.3,0.21-6.33,0.21c-19.17,0-30.3-6.33-36.7-14.39c-13.62,11.86-31.27,18.56-52.69,19.96
		C542.19,640.49,539.76,640.57,537.38,640.57z M548.44,467.74c-0.92,0-1.88,0.03-2.84,0.1c-10.19,0.67-17.81,4.49-23.3,11.69
		c-5.81,7.62-8.37,15.41-7.82,23.81c0.54,8.22,4.3,15.4,11.48,21.94c6.46,5.89,13.65,8.75,21.98,8.75c0.82,0,1.66-0.03,2.5-0.08
		c9.27-0.61,16.53-4.38,22.21-11.51c5.9-7.44,8.52-15.02,7.98-23.18c-0.55-8.31-4.07-15.75-10.76-22.74
		C564.22,470.61,557.21,467.74,548.44,467.74z"/>
	<path class="st2" d="M627.48,244.21c6.36,0,11.75,0.54,16.18,1.63c6.36,1.56,10.93,4.72,13.71,9.47c2.78,4.76,4.54,9.01,5.28,12.75
		c0.74,3.74,1.36,9.38,1.85,16.92l19.3,293.69c0.5,7.55,0.62,13.22,0.38,17.02c-0.24,3.81-1.53,8.09-3.85,12.85
		c-4.34,9.18-17.91,14.52-40.7,16.01c-1.96,0.13-3.86,0.19-5.68,0.19c-19.33,0-30.67-7.26-34.03-21.79
		c-12.74,16.65-31.41,25.78-56.01,27.39c-2.2,0.14-4.38,0.22-6.55,0.22c-27.08,0-52.63-11.17-76.66-33.53
		c-25.97-24.15-40.07-53.36-42.32-87.63c-2.25-34.27,7.99-65.16,30.72-92.68c22.73-27.51,48.69-42.23,77.88-44.15
		c2.26-0.15,4.48-0.22,6.66-0.22c21.18,0,38.36,7.04,51.53,21.1l-6.79-103.31c-0.5-7.54-0.62-13.21-0.38-17.02
		c0.24-3.8,1.44-8.16,3.59-13.08c2.15-4.91,6.27-8.56,12.37-10.94c6.1-2.38,14.32-3.91,24.65-4.58
		C621.76,244.32,624.71,244.21,627.48,244.21 M547.94,544.02c1.04,0,2.09-0.03,3.16-0.1c12.13-0.8,21.92-5.89,29.38-15.27
		c7.45-9.38,10.83-19.4,10.13-30.06c-0.7-10.65-5.21-20.32-13.52-29c-7.56-7.89-17.11-11.84-28.65-11.84
		c-1.14,0-2.31,0.04-3.49,0.12c-13.12,0.86-23.32,6.06-30.6,15.6c-7.28,9.54-10.56,19.72-9.85,30.54
		c0.71,10.82,5.62,20.38,14.73,28.68C527.54,540.24,537.11,544.02,547.94,544.02 M627.48,224.21c-3.19,0-6.61,0.12-10.16,0.35
		c-12.5,0.82-22.51,2.75-30.6,5.91c-13.95,5.43-20.44,14.73-23.43,21.56c-3.12,7.14-4.82,13.62-5.22,19.81
		c-0.3,4.72-0.18,11.13,0.38,19.62l4.27,65.03c-8.98-2.75-18.68-4.13-29.06-4.13c-2.6,0-5.28,0.09-7.97,0.27
		c-34.77,2.28-65.71,19.57-91.99,51.37c-25.98,31.45-37.84,67.36-35.26,106.73c2.59,39.38,18.96,73.35,48.66,100.97
		c27.73,25.8,58.1,38.89,90.28,38.89c2.6,0,5.25-0.09,7.87-0.26c20.12-1.32,37.29-6.92,51.35-16.72c1.15,0.9,2.34,1.75,3.59,2.55
		c8.92,5.71,20.29,8.61,33.79,8.61c2.25,0,4.6-0.08,6.99-0.24c13.6-0.89,24.48-3.01,33.28-6.47c11.59-4.56,19.71-11.57,24.13-20.83
		c3.48-7.16,5.37-13.78,5.78-20.24c0.3-4.7,0.18-11.12-0.38-19.61l-19.3-293.69c-0.56-8.48-1.27-14.86-2.19-19.49
		c-1.19-6-3.69-12.21-7.64-18.96c-3.85-6.59-11.53-15.2-26.21-18.8C642.37,224.93,635.52,224.21,627.48,224.21L627.48,224.21z
		 M547.94,524.02c-5.8,0-10.64-1.95-15.24-6.14c-6.9-6.28-8.01-11.69-8.24-15.2c-0.39-5.97,1.45-11.4,5.8-17.1
		c2.51-3.29,6.61-7.15,16-7.77c0.74-0.05,1.48-0.07,2.18-0.07c6.07,0,10.45,1.75,14.21,5.68c5.06,5.29,7.61,10.53,8,16.47
		c0.23,3.56-0.12,9.11-5.83,16.31c-3.92,4.93-8.56,7.33-15.03,7.75C549.16,524,548.54,524.02,547.94,524.02L547.94,524.02z"/>
</g>
<g>
	<path class="st5" d="M805.96,641.65c-31.67,0-62.78-8.86-92.46-26.33c-6.53-3.86-14.39-11.62-14.84-26.77
		c-0.32-10.9,5.76-25.26,19.15-45.19c3.69-5.97,11.07-13.06,25.37-13.49c0.34-0.01,0.69-0.02,1.04-0.02
		c6.02,0,12.94,1.53,20.94,4.65c-7.27-3.05-14.52-6.64-21.72-10.77c-11.35-6.58-20.87-17.05-28.34-31.13
		c-7.31-13.76-11.3-30.31-11.86-49.2c-0.87-29.21,8.85-51.88,28.87-67.39c19.06-14.77,47.81-22.82,85.45-23.94
		c1.54-0.05,3.11-0.07,4.66-0.07c23.19,0,47.39,5.2,71.94,15.45c19.37,8.18,23.73,19.81,23.97,28.13
		c0.29,9.89-3.42,21.26-11.35,34.76c-8.71,14.82-18.8,22.5-29.99,22.84c-0.2,0.01-0.39,0.01-0.6,0.01c-3.76,0-10.08-0.86-25.77-7.55
		c-8.72-3.72-18.24-5.6-28.27-5.6c-0.82,0-1.65,0.01-2.48,0.04c-11.21,0.33-16.3,1.78-18.44,2.69c1.79,2.15,7.95,5.59,24.36,7.28
		c22.77,1.75,45.27,7.71,66.88,17.71c11.49,5.16,21.25,14.28,29.02,27.11c7.62,12.59,11.76,28.47,12.32,47.22
		c0.55,18.67-2.59,35.03-9.35,48.64c-6.94,13.97-17.09,24.73-30.18,31.96l-0.21,0.11c-21.97,11.46-49.89,17.77-82.97,18.76
		C809.4,641.63,807.67,641.65,805.96,641.65C805.97,641.65,805.96,641.65,805.96,641.65z M768.34,535.81
		c4.08,1.74,8.42,3.86,13.04,6.38c11.9,6.48,22.54,9.77,31.63,9.77c0.37,0,0.74-0.01,1.11-0.02c8.04-0.24,13.04-1.08,16.09-1.91
		c-3.7-1.17-10-2.59-20.55-3.69C795.88,544.79,782.06,541.26,768.34,535.81z"/>
	<path class="st2" d="M822.21,362.01c21.97,0,44.67,4.9,68.08,14.68c11.65,4.92,17.6,11.31,17.83,19.2
		c0.23,7.88-3.1,17.69-9.98,29.4c-6.89,11.72-14.11,17.68-21.66,17.91c-0.1,0-0.2,0-0.3,0c-4.01,0-11.3-2.25-21.85-6.74
		c-10.02-4.27-20.75-6.4-32.19-6.4c-0.92,0-1.85,0.01-2.77,0.04c-19.39,0.58-28.97,4.48-28.75,11.71
		c0.29,9.86,11.65,15.93,34.08,18.22c21.75,1.66,42.96,7.28,63.63,16.85c9.66,4.32,17.87,12.05,24.61,23.19
		c6.74,11.14,10.37,25.26,10.88,42.34c0.51,17.09-2.26,31.72-8.31,43.9c-6.05,12.19-14.74,21.4-26.06,27.65
		c-20.73,10.81-46.94,16.68-78.64,17.63c-1.62,0.05-3.23,0.07-4.85,0.07c-29.99,0-59.12-8.31-87.38-24.95
		c-6.36-3.76-9.67-9.9-9.92-18.45c-0.25-8.54,5.6-21.7,17.57-39.49c3.45-5.69,9.19-8.66,17.24-8.9c0.24-0.01,0.49-0.01,0.74-0.01
		c7.98,0,18.78,3.71,32.39,11.11c13.45,7.33,25.58,10.98,36.41,10.98c0.47,0,0.94-0.01,1.4-0.02c20.03-0.6,29.94-4.84,29.71-12.72
		c-0.19-6.24-11.33-10.51-33.43-12.82c-20.78-2.34-41.55-9.45-62.29-21.33c-9.71-5.63-17.87-14.67-24.48-27.14
		c-6.62-12.46-10.18-27.39-10.7-44.81c-1.54-51.9,33.33-78.92,104.62-81.04C819.3,362.03,820.75,362.01,822.21,362.01
		 M822.21,342.01L822.21,342.01c-1.65,0-3.32,0.02-4.96,0.07c-40.36,1.2-70.21,9.71-91.28,26.03c-11.42,8.85-20,19.94-25.5,32.96
		c-5.27,12.48-7.71,26.83-7.24,42.64c0.61,20.44,4.99,38.47,13.03,53.6c5.58,10.51,12.24,19.26,19.91,26.15
		c-6.96,3.04-12.69,7.94-16.77,14.47c-14.74,21.96-21.14,37.67-20.74,50.91c0.46,15.37,7.47,27.83,19.74,35.07
		c31.26,18.41,64.08,27.73,97.55,27.73c1.8,0,3.63-0.03,5.44-0.08c34.6-1.03,63.97-7.72,87.29-19.88l0.21-0.11l0.21-0.12
		c14.9-8.23,26.44-20.44,34.3-36.27c7.5-15.09,10.99-33.06,10.39-53.38c-0.61-20.49-5.24-38.02-13.76-52.1
		c-8.83-14.59-20.07-25.03-33.42-31.03c-0.59-0.27-1.19-0.55-1.78-0.81c7.57-4.57,14.44-12.07,20.54-22.44
		c8.92-15.17,13.08-28.3,12.73-40.13c-0.26-8.78-3.71-16.99-9.97-23.73c-4.97-5.34-11.53-9.7-20.07-13.3l-0.03-0.01l-0.03-0.01
		C872.23,347.47,846.73,342.01,822.21,342.01L822.21,342.01z"/>
</g>
</svg>
